<?xml version="1.0" encoding="UTF-8"?>
<svg width="16px" height="22px" viewBox="0 0 16 22" version="1.1" xmlns="http://www.w3.org/2000/svg" xmlns:xlink="http://www.w3.org/1999/xlink">
    <g id="Page-1" stroke="none" stroke-width="1" fill="none" fill-rule="evenodd">
        <g id="pluginIcon">
            <path d="M8,22 C12.418278,22 16,18.418278 16,14 C16,8 12,6 8,0 C4,6 0,8 0,14 C0,18.418278 3.581722,22 8,22 Z" id="Path" fill="#FF3355"/>
            <path d="M3.22,17.625 C2.98316641,17.3476439 2.91611327,16.9633466 3.04502453,16.6221744 C3.17393579,16.2810023 3.47836479,16.0370688 3.83943332,15.9856289 C4.20050185,15.9341891 4.56094067,16.0834017 4.78,16.375 C5.56220397,17.3537357 6.74709672,17.9235813 8,17.9235813 C9.25290328,17.9235813 10.437796,17.3537357 11.22,16.375 C11.4390593,16.0834017 11.7994982,15.9341891 12.1605667,15.9856289 C12.5216352,16.0370688 12.8260642,16.2810023 12.9549755,16.6221744 C13.0838867,16.9633466 13.0168336,17.3476439 12.78,17.625 C11.6182008,19.0768764 9.85949519,19.9220184 8,19.9220184 C6.14050481,19.9220184 4.38179922,19.0768764 3.22,17.625 L3.22,17.625 Z" id="Path" fill="#FFFFFF"/>
        </g>
    </g>
</svg>
